<svg preserveAspectRatio="none" overflow="visible" style="display: block;" width="411" height="36" viewBox="0 0 411 36" fill="none" xmlns="http://www.w3.org/2000/svg">
<g id="Logo" clip-path="url(#clip0_0_300)">
<path id="Vector" d="M32.4127 13.7635V18.2295H0V13.7635H32.4127ZM28.6639 22.8978V35.8988H23.0906V27.3015H3.21214V22.9055H28.6639V22.8978ZM26.4637 1.52495V5.99091H3.90976V1.52495H26.4637ZM18.9432 16.9302V24.2282H13.3238V16.9302H18.9432ZM28.7176 4.41148V4.55153C28.7176 5.93645 28.7022 7.15019 28.6639 8.19277C28.6256 9.23534 28.5259 10.418 28.3649 11.7251C28.2039 13.0322 27.9509 14.4093 27.6136 15.8565L22.1016 15.3041C22.4083 13.9036 22.6383 12.5809 22.7916 11.3438C22.9449 10.1068 23.0369 9.00971 23.0752 8.0605C23.1136 7.11129 23.1442 5.94423 23.1519 4.55153V1.52495H28.7176V4.41148Z" fill="#FFE200"/>
<path id="Vector_2" d="M44.165 1.92176C45.9972 1.91398 47.6608 2.28744 49.148 3.0577C50.6352 3.82019 51.8158 4.87832 52.6821 6.21655C53.5484 7.55479 53.9777 9.06419 53.9777 10.7448C53.9777 12.4253 53.5484 13.9814 52.6821 15.3274C51.8158 16.6812 50.6352 17.7316 49.148 18.4941C47.6608 19.2565 45.9972 19.6378 44.165 19.6378C42.3327 19.6378 40.6539 19.2565 39.1513 18.4941C37.6487 17.7316 36.4681 16.6812 35.6018 15.3274C34.7432 13.9736 34.3139 12.4487 34.3216 10.7448C34.3139 9.07975 34.7355 7.57035 35.6018 6.22433C36.4604 4.87832 37.6487 3.82019 39.1589 3.0577C40.6692 2.29522 42.3404 1.91398 44.165 1.92176ZM62.4795 22.3454V35.9222H56.8908V26.8658H38.4V22.3454H62.4872H62.4795ZM44.165 6.72228C43.3217 6.72228 42.5627 6.87789 41.8958 7.18911C41.2288 7.50032 40.7075 7.95937 40.3319 8.56624C39.9562 9.17311 39.7722 9.89669 39.7799 10.7448C39.7722 11.6239 39.9562 12.3709 40.3319 12.9933C40.7075 13.6157 41.2288 14.0826 41.8958 14.3938C42.5627 14.705 43.314 14.8606 44.165 14.8528C44.9929 14.8606 45.7365 14.7128 46.4035 14.3938C47.0628 14.0826 47.5841 13.6157 47.9674 12.9933C48.3507 12.3709 48.5424 11.6239 48.5577 10.7448C48.55 9.89669 48.3507 9.17311 47.9674 8.56624C47.5841 7.95937 47.0628 7.50032 46.4112 7.18911C45.7519 6.87789 45.0082 6.72228 44.165 6.72228ZM62.4795 0V20.9527H56.8908V0H62.4795ZM67.0716 8.20056V12.7521H60.9079V8.20056H67.0716Z" fill="#FFE200"/>
<path id="Vector_3" d="M96.3104 1.20596C96.3027 4.57489 95.7125 7.40696 94.5395 9.72552C93.3666 12.0363 91.565 13.927 89.1425 15.3974C86.7123 16.8602 83.5692 17.9728 79.7208 18.7197L77.7966 14.2148C80.863 13.6858 83.3162 12.9544 85.1484 12.0052C86.9807 11.056 88.2839 9.95894 89.0582 8.72185C89.8325 7.48476 90.2235 6.08429 90.2311 4.53598V1.20596H96.3104ZM94.1256 1.20596V5.68749H79.7438V1.20596H94.1256ZM107.127 19.3188V29.3477H88.7822V32.8645H83.1782V25.3019H101.493V23.6525H83.0939V19.3266H107.127V19.3188ZM107.986 31.1995V35.541H83.1782V31.1995H107.986ZM107.127 0V17.9883H101.539V0H107.127Z" fill="#FFE200"/>
<path id="Vector_4" d="M129.474 2.93322V17.148H118.55V24.8195H113.03V12.7443H123.924V7.42252H112.992V2.93322H129.474ZM116.051 23.0767C119.294 23.0845 122.138 23.0223 124.576 22.8744C127.014 22.7344 129.459 22.4543 131.912 22.0497L132.403 26.5157C129.881 26.9825 127.343 27.3093 124.806 27.4804C122.268 27.6516 119.347 27.7294 116.051 27.7216H113.03V23.0767H116.051ZM139.67 0V36H134.174V0H139.67ZM144.699 13.3279V17.9728H138.451V13.3279H144.699Z" fill="#FFE200"/>
<path id="Vector_5" d="M157.931 5.563C157.931 7.8271 157.571 9.9356 156.858 11.8807C156.145 13.8258 155.026 15.5219 153.516 16.9613C152.005 18.4007 150.089 19.4588 147.774 20.1357L144.983 15.6931C146.923 15.1329 148.525 14.316 149.79 13.2578C151.055 12.1997 151.975 11.0093 152.557 9.68662C153.14 8.37173 153.439 6.98682 153.447 5.55522V3.31446H157.931V5.55522V5.563ZM165.889 1.8673V6.34882H146.509V1.8673H165.889ZM156.015 21.155V24.1037H168.442V21.155H174.03V35.5254H150.48V21.155H156.015ZM159.104 5.50076C159.104 6.85455 159.38 8.15388 159.932 9.39875C160.484 10.6436 161.366 11.7718 162.585 12.7754C163.804 13.7791 165.36 14.5494 167.253 15.0862L164.632 19.4121C162.347 18.7664 160.446 17.7549 158.936 16.37C157.425 14.9851 156.306 13.3668 155.585 11.4995C154.865 9.63994 154.512 7.63259 154.52 5.50076V3.31446H159.112V5.50076H159.104ZM156.015 31.0283H168.442V28.3908H156.015V31.0283ZM174.03 0V19.8012H168.442V0H174.03ZM178.63 7.43808V12.013H172.466V7.43808H178.63Z" fill="#FFE200"/>
<path id="Vector_6" d="M190.436 2.45861C192.23 2.45861 193.84 2.98768 195.266 4.03804C196.692 5.08839 197.811 6.59002 198.623 8.53512C199.436 10.4802 199.85 12.7365 199.85 15.2963C199.85 17.8561 199.444 20.1902 198.623 22.1431C197.811 24.096 196.684 25.6054 195.266 26.6557C193.84 27.7139 192.23 28.2351 190.436 28.2274C188.604 28.2351 186.971 27.7139 185.53 26.6557C184.088 25.5976 182.961 24.096 182.149 22.1431C181.336 20.1902 180.93 17.9105 180.938 15.2963C180.93 12.7365 181.329 10.4802 182.149 8.53512C182.969 6.59002 184.096 5.08839 185.537 4.03804C186.978 2.98768 188.611 2.45861 190.436 2.45861ZM190.436 7.54701C189.585 7.54701 188.857 7.83488 188.243 8.41841C187.63 9.00194 187.155 9.87335 186.818 11.0326C186.48 12.1919 186.319 13.6157 186.327 15.2885C186.319 16.9924 186.48 18.4318 186.818 19.5989C187.155 20.7659 187.63 21.6373 188.243 22.2287C188.857 22.8122 189.593 23.1078 190.436 23.1078C191.279 23.1078 191.954 22.8122 192.552 22.2287C193.15 21.6451 193.625 20.7659 193.962 19.5989C194.3 18.4318 194.476 17.0002 194.476 15.2885C194.476 13.5768 194.307 12.1919 193.962 11.0326C193.617 9.87335 193.15 9.00194 192.552 8.41841C191.954 7.83488 191.241 7.54701 190.436 7.54701ZM209.808 0V36H204.174V0H209.808Z" fill="#FFE200"/>
<path id="Vector_7" d="M219.062 15.1718C218.433 15.1718 217.85 15.0162 217.306 14.705C216.762 14.3938 216.332 13.9658 216.018 13.4212C215.704 12.8766 215.55 12.2853 215.558 11.6395C215.55 11.0015 215.704 10.418 216.018 9.88111C216.332 9.34426 216.762 8.92412 217.306 8.60512C217.85 8.29391 218.433 8.1383 219.062 8.1383C219.69 8.1383 220.242 8.29391 220.779 8.60512C221.315 8.91634 221.745 9.34426 222.067 9.88111C222.396 10.418 222.557 11.0015 222.557 11.6317C222.557 12.2619 222.396 12.8532 222.074 13.3979C221.752 13.9347 221.323 14.3704 220.786 14.6894C220.25 15.0162 219.675 15.1718 219.062 15.1718ZM219.062 28.9431C218.433 28.9431 217.85 28.7875 217.306 28.4763C216.762 28.1651 216.332 27.7372 216.018 27.1925C215.704 26.6479 215.55 26.0566 215.558 25.4108C215.55 24.7728 215.704 24.1893 216.018 23.6525C216.332 23.1156 216.762 22.6955 217.306 22.3765C217.85 22.0652 218.433 21.9096 219.062 21.9096C219.69 21.9096 220.242 22.0652 220.779 22.3765C221.315 22.6877 221.745 23.1156 222.067 23.6525C222.396 24.1893 222.557 24.7728 222.557 25.403C222.557 26.0333 222.396 26.6246 222.074 27.1692C221.752 27.7061 221.323 28.1418 220.786 28.4608C220.25 28.7798 219.675 28.9431 219.062 28.9431Z" fill="#FFE200"/>
<path id="Vector_8" d="M241.884 2.82429V11.2894H248.584V2.82429H254.065V27.6905H236.326V2.82429H241.891H241.884ZM241.884 23.139H248.584V15.6542H241.884V23.139ZM264.453 0V36H258.818V0H264.453Z" fill="#FFE200"/>
<path id="Vector_9" d="M301.289 27.1614V31.713H268.876V27.1614H301.289ZM286.8 6.84675C286.792 9.4065 286.233 11.7484 285.136 13.8725C284.032 15.9965 282.392 17.786 280.215 19.2565C278.038 20.727 275.385 21.7385 272.257 22.2909L270.088 17.7549C272.748 17.3503 274.979 16.6034 276.788 15.5064C278.589 14.4171 279.923 13.1178 280.79 11.6239C281.648 10.1223 282.078 8.5351 282.078 6.84675V4.97945H286.808V6.84675H286.8ZM298.453 2.90207V7.34469H271.583V2.90207H298.453ZM287.95 6.84675C287.942 8.5351 288.372 10.1067 289.238 11.5772C290.112 13.04 291.461 14.3082 293.301 15.3819C295.141 16.4478 297.448 17.1869 300.216 17.5915L298.031 22.0419C294.842 21.4895 292.143 20.5014 289.928 19.0776C287.72 17.6537 286.049 15.8954 284.922 13.8102C283.795 11.7251 283.235 9.39872 283.251 6.84675V4.97945H287.942V6.84675H287.95Z" fill="#FFE200"/>
<path id="Vector_10" d="M310.397 3.4156V25.7221H304.877V3.4156H310.397ZM308.074 22.392C310.826 22.3998 313.632 22.2831 316.483 22.0341C319.335 21.7852 322.156 21.3962 324.947 20.8593L325.629 25.4887C322.724 26.0955 319.811 26.5312 316.905 26.788C313.992 27.0447 311.056 27.1692 308.081 27.1614H304.885V22.392H308.081H308.074ZM333.096 0V35.8989H327.546V0H333.096Z" fill="#FFE200"/>
<path id="Vector_11" d="M369.748 27.0369V31.6429H337.336V27.0369H369.748ZM355.228 4.55153C355.228 7.19687 354.654 9.67883 353.511 11.9818C352.369 14.2926 350.675 16.2688 348.429 17.9183C346.182 19.5677 343.484 20.7037 340.333 21.3339L337.964 16.6423C340.647 16.1755 342.917 15.3041 344.779 14.0359C346.642 12.7677 348.03 11.3049 348.95 9.6477C349.862 7.99048 350.33 6.28656 350.337 4.54375V2.03845H355.228V4.54375V4.55153ZM356.294 4.55153C356.286 6.32547 356.739 8.03716 357.643 9.69439C358.556 11.3516 359.943 12.8143 361.821 14.0748C363.692 15.3352 366.007 16.191 368.759 16.6501L366.329 21.3417C363.148 20.727 360.441 19.5989 358.218 17.965C355.987 16.3311 354.316 14.3626 353.189 12.0519C352.062 9.74107 351.503 7.24356 351.518 4.55153V2.04624H356.302V4.55153H356.294Z" fill="#FFE200"/>
<path id="Vector_12" d="M395.323 1.77394V12.3086H387.173V18.533H381.784V8.23168H389.949V6.15431H381.746V1.77394H395.323ZM384.306 14.5183C386.384 14.5183 388.04 14.5027 389.266 14.4794C390.493 14.4482 391.704 14.386 392.892 14.2693C394.081 14.1604 395.284 13.9892 396.511 13.7558L397.002 18.2062C395.123 18.5252 393.268 18.743 391.428 18.8442C389.588 18.9453 387.212 18.9998 384.306 19.0076H381.792V14.5105H384.306V14.5183ZM392.003 21.3806V24.0804H405.48V21.3806H411V35.5254H386.491V21.3806H392.003ZM392.003 31.0283H405.48V28.3752H392.003V31.0283ZM403.249 0.606874V19.8167H398.082V0.606874H403.249ZM407.435 7.88157V12.2619H402.038V7.88157H407.435ZM411 0.0544641V19.9801H405.726V0.0544641H411Z" fill="#FFE200"/>
</g>
<defs>
<clipPath id="clip0_0_300">
<rect width="411" height="36" fill="white"/>
</clipPath>
</defs>
</svg>
